<?xml version="1.0" encoding="UTF-8" standalone="no"?>
<!DOCTYPE svg PUBLIC "-//W3C//DTD SVG 1.1//EN" "http://www.w3.org/Graphics/SVG/1.1/DTD/svg11.dtd">
<svg width="100%" height="100%" viewBox="0 0 249 249" version="1.1" xmlns="http://www.w3.org/2000/svg" xmlns:xlink="http://www.w3.org/1999/xlink" xml:space="preserve" xmlns:serif="http://www.serif.com/" style="fill-rule:evenodd;clip-rule:evenodd;stroke-linejoin:round;stroke-miterlimit:2;">
    <g transform="matrix(1,0,0,1,-3.909731,-3.909731)">
        <g transform="matrix(1.098439,0,0,1.098439,-111.126737,-57.016988)">
            <path d="M330.667,111.952L330.667,224.921C330.667,256.096 305.357,281.406 274.182,281.406L161.212,281.406C130.037,281.406 104.727,256.096 104.727,224.921L104.727,111.952C104.727,80.777 130.037,55.467 161.212,55.467L274.182,55.467C305.357,55.467 330.667,80.777 330.667,111.952Z" style="fill:rgb(36,195,81);"/>
        </g>
        <g transform="matrix(1.322095,0,0,1.322095,-37.362261,-65.042586)">
            <g transform="matrix(262.084433,0,0,262.084433,42.278794,212.557573)">
                <path d="M0.218,0.01C0.169,0.01 0.13,-0.006 0.103,-0.039C0.076,-0.071 0.063,-0.117 0.063,-0.176L0.063,-0.518L0.195,-0.518L0.195,-0.208C0.195,-0.179 0.202,-0.156 0.216,-0.14C0.229,-0.124 0.248,-0.116 0.271,-0.116C0.302,-0.116 0.326,-0.128 0.342,-0.152C0.357,-0.176 0.365,-0.216 0.365,-0.272L0.392,-0.1L0.352,-0.1C0.344,-0.064 0.328,-0.037 0.304,-0.019C0.281,0 0.252,0.01 0.218,0.01ZM0.374,0.005L0.365,-0.119L0.365,-0.21L0.498,-0.21L0.498,-0.118L0.569,-0.107L0.569,-0L0.374,0.005ZM0.365,-0.146L0.365,-0.518L0.498,-0.518L0.498,-0.176L0.365,-0.146Z" style="fill:white;fill-rule:nonzero;"/>
            </g>
            <g transform="matrix(262.084433,0,0,262.084433,195.843891,212.557573)">
            </g>
        </g>
    </g>
</svg>
